PathFileType	4	(X/Y/Z)	OpenSim_Sub10_EMGStiffKnee_Accel.trc
DataRate	CameraRate	NumFrames	NumMarkers	Units	OrigDataRate	OrigDataStartFrame	OrigNumFrames
100	100	13	8	m	100	4186	8371
Frame#	Time	torso_imu_offset_imu	pelvis_imu_offset_imu	tibia_r_imu_offset_imu	femur_r_imu_offset_imu	tibia_l_imu_offset_imu	femur_l_imu_offset_imu	toes_r_imu_offset_imu	toes_l_imu_offset_imu
				X1	Y1	Z1	X2	Y2	Z2	X3	Y3	Z3	X4	Y4	Z4	X5	Y5	Z5	X6	Y6	Z6	X7	Y7	Z7	X8		Y8	Z8	

4186	41.85000000	14.35347000	-2.12274100	6.47550600	11.47504400	-0.74829000	5.74358300	0.81017900	19.39662700	-8.74216900	6.32844900	4.22500200	-0.61066900	12.85879200	0.54306200	5.14766200	12.90664300	0.33773000	-1.63095400	6.43985100	3.21759000	11.82643900	6.30007800	-0.99255000	11.02147800
4187	41.86000000	13.61223800	-1.89322700	6.26379900	10.86576600	-1.12151500	5.29368400	5.71563500	15.10138000	-8.92218200	6.26939600	4.51020200	-0.75830900	12.86400600	0.20345400	5.27902000	11.82775900	1.37440800	-0.71504400	6.32945400	-3.15223900	6.51314200	8.15201500	2.40195400	13.29269200
4188	41.87000000	12.10183700	-1.64260200	6.14719000	10.43938100	-0.81403700	5.31012100	9.32297700	13.88041700	-4.96446300	8.30771200	4.40678100	-0.90758400	12.46901500	-0.19476100	4.63947900	10.91892100	1.95989000	0.02966600	5.41374900	-1.96544200	8.39167300	7.40408000	4.80216100	14.52440600
4189	41.88000000	11.24193300	-1.73905900	5.71513200	10.10081400	-0.14168400	5.56131300	10.06735500	12.11752800	0.14620200	10.73705200	3.41547300	-1.50486800	12.05776900	-0.05522100	2.88902800	10.23770800	2.19657500	0.56260300	5.12850000	-1.66555800	8.46380800	9.40131600	-0.60391300	11.65048900
4190	41.89000000	10.69429200	-1.80394100	5.35915500	9.63345400	0.54143600	5.82138800	8.58006900	8.00067500	3.61734000	12.58349800	2.59269500	-1.67955900	11.81975400	0.42938700	1.39956600	9.98408800	2.05610800	0.95354500	5.23985800	-0.55087100	8.30962700	10.87090700	-1.58381400	11.50721800
4191	41.90000000	10.15981900	-1.58129800	5.06586800	9.15097400	1.34296200	5.96003000	9.47648700	3.15561000	2.57995600	13.01172900	1.76670000	-1.76710400	11.13401300	0.72825100	0.32772400	9.61293800	1.79283900	1.15178600	4.78284500	-0.17124600	9.25319400	10.75301800	5.72151900	15.15658400
4192	41.91000000	9.42153000	-1.31439700	4.88832600	8.52651800	2.08982900	5.87316700	12.57549500	1.26179200	1.12563400	12.26487200	0.80291200	-1.61466600	10.03782300	0.37366600	0.08913100	9.32145200	1.33197200	1.15555400	4.83036700	-0.05595500	9.15132500	10.69877500	8.35821500	14.03899000
4193	41.92000000	8.65900400	-1.17693200	4.77595700	7.96197800	2.70779900	5.57754300	14.16575700	0.18111500	1.64933000	11.07739300	-0.33953100	-0.87666700	9.14166500	-1.01163000	0.74652700	9.63943100	0.81078800	1.09505800	4.72683400	0.68840100	9.49066200	12.19628200	1.05117100	11.39662400
4194	41.93000000	8.07769800	-1.16317200	4.59388300	7.42632300	3.29772500	5.27397100	13.29132000	-1.29008200	0.54216200	9.89870900	-1.62521900	0.02169700	8.50341500	-4.13242200	1.56121800	9.95271500	0.32418500	0.83776300	4.56959900	-0.09389600	8.92895400	12.03996100	-0.45678300	13.19745600
4195	41.94000000	7.47046100	-1.32762000	4.45415000	6.86767200	3.65093900	4.94593200	11.46615200	-1.27636300	0.99888300	9.08186300	-2.72269800	0.34299800	7.23311100	-8.67762300	0.35299900	9.83204700	0.05191000	0.34002900	4.91594600	-0.17865300	8.76420300	6.87477900	2.69266200	19.24900800
4196	41.95000000	6.97610900	-1.54100900	4.41414400	6.22815900	3.65658700	4.80817000	9.45428800	-0.52803700	1.41821800	8.40761100	-3.45836000	0.13514800	5.62817700	-11.05381600	-2.49388400	9.60494200	-0.00932500	-0.06262600	4.67429300	-0.81612100	8.60868600	3.72643500	3.71636900	20.49450600
4197	41.96000000	6.57631600	-1.70080400	4.39493100	5.74225600	3.47612600	4.73288500	7.80774700	-1.05586600	-0.06543700	7.68553900	-3.61774600	-0.18679300	4.57558300	-10.64104400	-3.47500100	9.56696100	-0.05101800	-0.06680600	4.91598000	-0.69047400	8.69898200	2.72737100	0.22480800	16.52334500
4198	41.97000000	6.38780700	-1.62393600	4.46021200	5.54705600	3.24866700	4.60881000	7.09244700	-1.56619200	-0.55433900	7.40904100	-3.18807200	-0.16818400	4.53410200	-9.18195700	-1.91495000	9.54818800	-0.03561600	0.01132100	4.81978300	-0.24882600	8.92277400	-0.89583300	1.33578400	16.03107500
